<svg width="24" height="24" viewBox="0 0 24 24" fill="none" xmlns="http://www.w3.org/2000/svg">
<path fill-rule="evenodd" clip-rule="evenodd" d="M2.14287 12.0017C2.14287 6.55681 6.55679 2.14285 12.0016 2.14285C17.4464 2.14285 21.8604 6.55681 21.8604 12.0017C21.8604 17.4466 17.4464 21.8605 12.0016 21.8605C10.4845 21.8605 9.05021 21.5187 7.76895 20.9086C7.55238 20.7757 7.28807 20.719 7.01845 20.7678L7.00966 20.7694L2.7386 21.5417L3.90553 18.4369L3.9073 18.4323C4.04468 18.0666 3.96932 17.6734 3.74293 17.3881C2.73109 15.8403 2.14287 13.9913 2.14287 12.0017ZM12.0016 24.0034C10.2395 24.0034 8.56364 23.623 7.05383 22.939L1.26209 23.9862C0.882623 24.0548 0.495555 23.9142 0.248584 23.6182C0.00161418 23.322 -0.0671553 22.916 0.0685174 22.555L1.71197 18.1825C0.625131 16.3766 1.49564e-05 14.2608 1.49564e-05 12.0017C1.49564e-05 5.37335 5.37332 0 12.0016 0C18.63 0 24.0032 5.37335 24.0032 12.0017C24.0032 18.6301 18.63 24.0034 12.0016 24.0034ZM5.57312 9.43045C5.57312 8.72038 6.14874 8.14474 6.85883 8.14474H17.1445C17.8546 8.14474 18.4302 8.72038 18.4302 9.43045C18.4302 10.1405 17.8546 10.7162 17.1445 10.7162H6.85883C6.14874 10.7162 5.57312 10.1405 5.57312 9.43045ZM5.57312 14.5733C5.57312 13.8632 6.14874 13.2876 6.85883 13.2876H13.716C14.4261 13.2876 15.0017 13.8632 15.0017 14.5733C15.0017 15.2834 14.4261 15.859 13.716 15.859H6.85883C6.14874 15.859 5.57312 15.2834 5.57312 14.5733Z" fill="black"/>
</svg>
