<svg width="25" height="25" viewBox="0 0 25 25" fill="none" xmlns="http://www.w3.org/2000/svg">
<path d="M12.5 15.8332C14.3409 15.8332 15.8333 14.3408 15.8333 12.4998C15.8333 10.6589 14.3409 9.1665 12.5 9.1665C10.659 9.1665 9.16666 10.6589 9.16666 12.4998C9.16666 14.3408 10.659 15.8332 12.5 15.8332Z" fill="#8D8D8D"/>
<path d="M9.37501 2.08301L7.46876 4.16634H4.16668C3.02084 4.16634 2.08334 5.10384 2.08334 6.24967V18.7497C2.08334 19.8955 3.02084 20.833 4.16668 20.833H20.8333C21.9792 20.833 22.9167 19.8955 22.9167 18.7497V6.24967C22.9167 5.10384 21.9792 4.16634 20.8333 4.16634H17.5313L15.625 2.08301H9.37501ZM12.5 17.708C9.62501 17.708 7.29168 15.3747 7.29168 12.4997C7.29168 9.62467 9.62501 7.29134 12.5 7.29134C15.375 7.29134 17.7083 9.62467 17.7083 12.4997C17.7083 15.3747 15.375 17.708 12.5 17.708Z" fill="#8D8D8D"/>
</svg>
