<?xml version="1.0" standalone="no"?>
<!DOCTYPE svg PUBLIC "-//W3C//DTD SVG 20010904//EN"
 "http://www.w3.org/TR/2001/REC-SVG-20010904/DTD/svg10.dtd">
<svg version="1.0" xmlns="http://www.w3.org/2000/svg"
 width="600.000000pt" height="90.000000pt" viewBox="0 0 600.000000 90.000000"
 preserveAspectRatio="xMidYMid meet">

<g transform="translate(0.000000,90.000000) scale(0.100000,-0.100000)"
fill="#000000" stroke="none">
<path d="M385 601 c-64 -30 -90 -64 -90 -121 0 -43 5 -54 36 -87 33 -35 36
-41 27 -72 -5 -18 -7 -35 -4 -38 2 -3 25 9 50 26 27 19 57 31 78 31 43 1 106
30 138 64 19 22 25 38 25 76 0 38 -6 54 -25 76 -57 61 -158 81 -235 45z"/>
<path d="M2570 450 c0 -109 2 -130 15 -130 12 0 15 14 15 65 0 58 2 65 20 65
11 0 20 5 20 10 0 6 -9 10 -20 10 -18 0 -20 7 -20 55 0 42 -3 55 -15 55 -13 0
-15 -21 -15 -130z"/>
<path d="M2830 450 c0 -109 2 -130 15 -130 12 0 15 14 15 65 0 58 2 65 20 65
11 0 20 5 20 10 0 6 -9 10 -20 10 -18 0 -20 7 -20 55 0 42 -3 55 -15 55 -13 0
-15 -21 -15 -130z"/>
<path d="M3950 485 c0 -57 4 -95 10 -95 6 0 10 38 10 95 0 57 -4 95 -10 95 -6
0 -10 -38 -10 -95z"/>
<path d="M2962 544 c-44 -31 -23 -101 36 -118 15 -5 22 -15 22 -32 0 -22 -3
-24 -55 -24 -30 0 -55 -4 -55 -10 0 -6 47 -10 120 -10 73 0 120 4 120 10 0 6
-25 10 -56 10 -54 0 -55 0 -52 27 2 19 10 29 23 31 55 10 76 86 33 116 -29 20
-107 20 -136 0z m119 -14 c44 -24 7 -90 -51 -90 -57 0 -95 65 -52 89 22 14 78
14 103 1z"/>
<path d="M3270 550 c0 -6 33 -10 80 -10 73 0 80 -2 80 -20 0 -18 -7 -20 -80
-20 l-80 0 0 -39 c0 -39 1 -40 38 -43 30 -2 38 -7 40 -25 3 -22 0 -23 -52 -23
-31 0 -56 -4 -56 -10 0 -6 47 -10 120 -10 73 0 120 4 120 10 0 6 -25 10 -55
10 -52 0 -55 1 -55 25 0 23 4 25 46 25 27 0 43 4 39 10 -3 6 -42 10 -86 10
-72 0 -79 2 -79 20 0 18 7 20 80 20 l80 0 0 40 0 40 -90 0 c-53 0 -90 -4 -90
-10z"/>
<path d="M3789 550 c-9 -5 -20 -21 -23 -35 -13 -53 38 -94 91 -74 33 12 43 26
43 60 0 48 -64 76 -111 49z m81 -25 c16 -19 5 -61 -18 -67 -34 -9 -62 9 -62
40 0 16 3 32 7 35 12 13 60 7 73 -8z"/>
<path d="M2415 540 c3 -5 26 -10 50 -10 38 0 43 -2 38 -20 -4 -17 -14 -20 -54
-20 -27 0 -49 -4 -49 -10 0 -5 20 -10 45 -10 42 0 45 -1 35 -20 -6 -11 -26
-30 -46 -44 -20 -13 -31 -27 -26 -30 31 -19 122 94 122 151 0 21 -4 23 -61 23
-37 0 -58 -4 -54 -10z"/>
<path d="M2675 540 c3 -5 26 -10 50 -10 38 0 43 -2 38 -20 -4 -17 -14 -20 -54
-20 -27 0 -49 -4 -49 -10 0 -5 20 -10 45 -10 42 0 45 -1 35 -20 -6 -11 -26
-30 -46 -44 -20 -13 -31 -27 -26 -30 31 -19 122 94 122 151 0 21 -4 23 -61 23
-37 0 -58 -4 -54 -10z"/>
<path d="M3530 540 c0 -6 32 -10 76 -10 l77 0 -6 -66 c-5 -49 -3 -64 6 -61 7
2 13 30 15 75 l3 72 -86 0 c-50 0 -85 -4 -85 -10z"/>
<path d="M3800 370 l0 -40 90 0 c53 0 90 4 90 10 0 6 -33 10 -80 10 l-80 0 0
30 c0 17 -4 30 -10 30 -5 0 -10 -18 -10 -40z"/>
<path d="M3500 370 c0 -6 47 -10 120 -10 73 0 120 4 120 10 0 6 -47 10 -120
10 -73 0 -120 -4 -120 -10z"/>
</g>
</svg>
