<svg width="13" height="13" viewBox="0 0 13 13" fill="none" xmlns="http://www.w3.org/2000/svg">
<path fill-rule="evenodd" clip-rule="evenodd" d="M6.5 10.8334C5.30563 10.5734 1.625 8.53675 1.625 4.87508C1.625 4.30665 1.80385 3.75263 2.13622 3.29149C2.46859 2.83036 2.93762 2.48548 3.47688 2.30573C4.01614 2.12598 4.59829 2.12045 5.14087 2.28994C5.68345 2.45943 6.15894 2.79534 6.5 3.25008C6.84106 2.79534 7.31655 2.45943 7.85913 2.28994C8.40171 2.12045 8.98386 2.12598 9.52312 2.30573C10.0624 2.48548 10.5314 2.83036 10.8638 3.29149C11.1961 3.75263 11.375 4.30665 11.375 4.87508C11.375 8.53675 7.69438 10.5734 6.5 10.8334Z" fill="#FF6E00"/>
</svg>
