<svg width="25" height="25" viewBox="0 0 25 25" fill="none" xmlns="http://www.w3.org/2000/svg">
<circle opacity="0.25" cx="12.5" cy="12.5" r="12.15" fill="white" stroke="#221F1F" stroke-width="0.7"/>
<path d="M16.84 11.241C16.8487 11.865 16.775 12.437 16.619 12.957C16.4717 13.4683 16.242 13.9017 15.93 14.257C15.6007 14.621 15.189 14.8983 14.695 15.089C14.201 15.271 13.6117 15.3447 12.927 15.31C12.641 15.284 12.3507 15.2493 12.056 15.206C11.77 15.1627 11.5533 15.115 11.406 15.063V18.027H8.78V7.38H12.992C13.746 7.38 14.3657 7.47967 14.851 7.679C15.345 7.86967 15.735 8.13833 16.021 8.485C16.2983 8.84033 16.4977 9.25633 16.619 9.733C16.7403 10.201 16.814 10.7037 16.84 11.241ZM14.383 11.189C14.383 10.8077 14.3397 10.4957 14.253 10.253C14.1663 10.0017 14.0537 9.811 13.915 9.681C13.759 9.551 13.5857 9.46 13.395 9.408C13.213 9.356 13.0267 9.33 12.836 9.33H11.406V13.074C11.5707 13.1173 11.7873 13.152 12.056 13.178C12.3247 13.204 12.5413 13.217 12.706 13.217C13.3387 13.217 13.7763 13.048 14.019 12.71C14.2617 12.372 14.383 11.865 14.383 11.189Z" fill="#FF6E00"/>
</svg>
